<svg xmlns="http://www.w3.org/2000/svg" width="92" height="16" fill="none" viewBox="0 0 92 16"><g id="logo" fill="currentColor"><path d="M19.44 15.492h-3.747L22.328.468h3.16l6.713 15.024h-3.747l-1.288-3.083h-6.439zm2.42-5.853h4.136l-2.068-5.035zM40.63.468h-7.025v15.024h3.396V3.434h3.629c1.873 0 2.888.78 2.888 2.263v.39c0 1.483-1.015 2.303-2.888 2.303h-2.498v2.927h2.498c3.902 0 6.322-1.913 6.322-4.996v-.858c0-3.044-2.42-4.995-6.322-4.995M64.512.468h11.395v2.966h-8v2.965h6.634v2.927h-6.634v3.2h8.195v2.927h-11.59zM78.133.468h3.473l7.063 9.6-.117-9.6h3.395v15.024h-3.512L81.411 6.01l.078 9.522h-3.356zM56.083.468h-7.024v15.024h3.395V3.434h3.629c1.873 0 2.888.78 2.888 2.263v.39c0 1.483-1.015 2.303-2.888 2.303h-2.498v2.927h2.498c3.902 0 6.322-1.913 6.322-4.996v-.858c0-3.044-2.42-4.995-6.322-4.995M12.455 10.03a4.84 4.84 0 0 1-4.41 2.809c-3.005 0-4.527-2.654-4.527-4.8 0-2.732 1.99-4.8 4.761-4.8 2.107 0 3.786 1.561 4.37 3.395l3.279-1.132a7.3 7.3 0 0 0-2.303-3.512s-.039 0-.039-.039l-.078-.078C12.104.624 10.27 0 8.162 0 6.289 0 4.572.663 3.44 1.483 1.49 2.81.084 4.995.006 7.922a7.3 7.3 0 0 0 .39 2.654C.786 11.707 2.894 16 8.045 16c2.068 0 4.332-.585 5.854-2.263.741-.703 1.326-1.6 1.717-2.654z"/></g></svg>